# xmcd CD database file
#
# Track frame offsets:
#	150
#	25016
#	37584
#	52424
#	67360
#	87207
#	99805
#	109645
#	119487
#	149187
#	162957
#	183420
#	199311
#	211852
#	223014
#	235530
#	251114
#	263949
#
# Disc length: 3753 seconds
#
# Revision: 2
# Processed by: cddbd v1.5.2PL0 Copyright (c) Steve Scherf et al.
# Submitted via: CDex 1.50Beta7
#
DISCID=0c0ea712
DTITLE=Rozni Artysci - gentleman and the city
DYEAR=2015
DGENRE=Jazz
TTITLE0=RAY CHARLES and MILT JACKSON - Hallelujach I Love Her So
TTITLE1=FRANK SINATRA - All Of Me
TTITLE2=TONY BENNETT and PERCY FAITH - Stranger In Paradise
TTITLE3=LOUIS ARMSTRONG and OSCAR PETERSON - Lets Fall In Love
TTITLE4=SAMMY DAVIS Jr - The Lady Is A Tramp
TTITLE5=MEL TORME - A Foggy Day
TTITLE6=FRED ASTAIRE - Puttin On The Ritz
TTITLE7=RAY ANTHONY - April In Paris
TTITLE8=THE DAVE BRUBECK QARTET- Georgia On My Mind
TTITLE9=DEAN MARTIN - Goodnight My Love
TTITLE10=BARRY WHITE - CantGet Enough Of Your Love Babe
TTITLE11=SAM COOKE - Unchained Melody
TTITLE12=CHED BAKER - Time After Time
TTITLE13=SAMMY DAVIS Jr WITH DAVE CAVENAUGH - I Aint Got Nobody
TTITLE14=BILLY ECKSTINE and QINSY JONES - In The Still Of The Night
TTITLE15=NAT KING COLE - Mona Lisa
TTITLE16=PERRY COMO - Papa Loves Mambo
TTITLE17=ANDY WLLAMS - My One And Only Love
EXTD=YEAR: 2015
EXTT0=
EXTT1=
EXTT2=
EXTT3=
EXTT4=
EXTT5=
EXTT6=
EXTT7=
EXTT8=
EXTT9=
EXTT10=
EXTT11=
EXTT12=
EXTT13=
EXTT14=
EXTT15=
EXTT16=
EXTT17=
PLAYORDER=
